<svg xmlns="http://www.w3.org/2000/svg" width="1120" height="960" viewBox="0 0 1120 960">
<rect width="1120" height="960" fill="#070708"/><text x="40" y="42" font-size="32" fill="#e42c2c" font-family="Arial" font-weight="900">GOOD WITH TEETH PACK v0 — INTERNAL DRAFT</text><rect x="40" y="70" width="304" height="304" fill="#111" stroke="#333"/><image href="01-badboys-face-red.svg" x="40" y="70" width="304" height="304"/><text x="40" y="415" font-size="24" fill="#ddd">01-badboys-face-red.svg</text><rect x="400" y="70" width="304" height="304" fill="#111" stroke="#333"/><image href="02-badboys-face-bone.svg" x="400" y="70" width="304" height="304"/><text x="400" y="415" font-size="24" fill="#ddd">02-badboys-face-bone.svg</text><rect x="760" y="70" width="304" height="304" fill="#111" stroke="#333"/><image href="03-joycat-gold.svg" x="760" y="70" width="304" height="304"/><text x="760" y="415" font-size="24" fill="#ddd">03-joycat-gold.svg</text><rect x="40" y="510" width="304" height="304" fill="#111" stroke="#333"/><image href="04-good-with-teeth.svg" x="40" y="510" width="304" height="304"/><text x="40" y="855" font-size="24" fill="#ddd">04-good-with-teeth.svg</text><rect x="400" y="510" width="304" height="304" fill="#111" stroke="#333"/><image href="05-kindness-not-submission.svg" x="400" y="510" width="304" height="304"/><text x="400" y="855" font-size="24" fill="#ddd">05-kindness-not-submission.svg</text><rect x="760" y="510" width="304" height="304" fill="#111" stroke="#333"/><image href="06-warning-label.svg" x="760" y="510" width="304" height="304"/><text x="760" y="855" font-size="24" fill="#ddd">06-warning-label.svg</text></svg>